# xmcd CD database file
#
# Track frame offsets:
#	150
#	20280
#	36945
#
# Disc length: 757 seconds
#
# Revision: 1
# Processed by: cddbd v1.5.2PL0 Copyright (c) Steve Scherf et al.
# Submitted via: CDex 1.70beta2
#
DISCID=1a02f303
DTITLE=長渕剛 - しあわせになろうよ
DYEAR=2003
DGENRE=Folk
TTITLE0=しあわせになろうよ
TTITLE1=しあわせになろうよ（アカペラ・バージョン）
TTITLE2=しあわせになろうよ（オリジナル・カラオケ）
EXTD=YEAR: 2003
EXTT0=
EXTT1=
EXTT2=
PLAYORDER=
